<svg xmlns="http://www.w3.org/2000/svg" style="display:none">
  <!-- Brand marks from Simple Icons (CC0-1.0). Trademarks remain their owners';
       used here only to identify the device actually playing.
       NOTE: xbox was removed from Simple Icons upstream (absent from v13 and
       master), so it is pinned from v11. -->
  <symbol id="brand-sonos" viewBox="0 9.66 24 4.67"><path d="M12.988 12.36l-2.813-2.634v4.429h.837V11.7l2.813 2.633V9.905h-.837zM6.464 9.665A2.3 2.3 0 0 0 4.13 12c0 1.257 1.077 2.334 2.334 2.334A2.3 2.3 0 0 0 8.798 12a2.3 2.3 0 0 0-2.334-2.334m0 3.83A1.482 1.482 0 0 1 4.968 12c0-.838.658-1.496 1.496-1.496S7.96 11.162 7.96 12s-.658 1.496-1.496 1.496M2.694 12c-.24-.18-.54-.3-.958-.419-.838-.24-.838-.479-.838-.598 0-.24.299-.48.718-.48.36 0 .658.18.778.24l.06.06.658-.479-.06-.06s-.538-.598-1.436-.598c-.419 0-.838.12-1.137.359-.3.24-.479.598-.479.958s.18.718.479.957c.24.18.538.3.957.42.838.239.838.478.838.598 0 .239-.299.478-.718.478-.359 0-.658-.18-.778-.239l-.06-.06-.658.479.06.06s.538.598 1.436.598c.42 0 .838-.12 1.137-.359.3-.24.48-.598.48-.957 0-.36-.18-.659-.48-.958m14.843-2.334A2.3 2.3 0 0 0 15.202 12a2.337 2.337 0 0 0 2.334 2.334A2.3 2.3 0 0 0 19.87 12a2.337 2.337 0 0 0-2.334-2.334m0 3.83A1.482 1.482 0 0 1 16.04 12c0-.838.658-1.496 1.496-1.496s1.496.658 1.496 1.496-.718 1.496-1.496 1.496m3.77-1.556c.24.18.54.3.958.42.838.239.838.478.838.598 0 .239-.299.478-.718.478-.36 0-.658-.18-.778-.239h-.06l-.658.479.06.06s.538.598 1.436.598c.419 0 .838-.12 1.137-.359s.479-.598.479-.958-.18-.718-.479-.957c-.24-.18-.538-.3-.957-.42-.838-.239-.838-.478-.838-.598 0-.239.299-.478.718-.478.359 0 .658.18.778.239l.06.06.658-.479-.06-.06s-.538-.598-1.436-.598c-.42 0-.838.12-1.137.359-.3.24-.48.598-.48.957-.059.36.12.659.48.898"/></symbol>
  <symbol id="brand-apple" viewBox="1.11 0 20.66 24.05"><path d="M12.152 6.896c-.948 0-2.415-1.078-3.96-1.04-2.04.027-3.91 1.183-4.961 3.014-2.117 3.675-.546 9.103 1.519 12.09 1.013 1.454 2.208 3.09 3.792 3.039 1.52-.065 2.09-.987 3.935-.987 1.831 0 2.35.987 3.96.948 1.637-.026 2.676-1.48 3.676-2.948 1.156-1.688 1.636-3.325 1.662-3.415-.039-.013-3.182-1.221-3.22-4.857-.026-3.04 2.48-4.494 2.597-4.559-1.429-2.09-3.623-2.324-4.39-2.376-2-.156-3.675 1.09-4.61 1.09zM15.53 3.83c.843-1.012 1.4-2.427 1.245-3.83-1.207.052-2.662.805-3.532 1.818-.78.896-1.454 2.338-1.273 3.714 1.338.104 2.715-.688 3.559-1.701"/></symbol>
  <symbol id="brand-playstation" viewBox="-0.41 2.6 24.66 18.81"><path d="M8.984 2.596v17.547l3.915 1.261V6.688c0-.69.304-1.151.794-.991.636.18.76.814.76 1.505v5.875c2.441 1.193 4.362-.002 4.362-3.152 0-3.237-1.126-4.675-4.438-5.827-1.307-.448-3.728-1.186-5.39-1.502zm4.656 16.241l6.296-2.275c.715-.258.826-.625.246-.818-.586-.192-1.637-.139-2.357.123l-4.205 1.5V14.98l.24-.085s1.201-.42 2.913-.615c1.696-.18 3.785.03 5.437.661 1.848.601 2.04 1.472 1.576 2.072-.465.6-1.622 1.036-1.622 1.036l-8.544 3.107V18.86zM1.807 18.6c-1.9-.545-2.214-1.668-1.352-2.32.801-.586 2.16-1.052 2.16-1.052l5.615-2.013v2.313L4.205 17c-.705.271-.825.632-.239.826.586.195 1.637.15 2.343-.12L8.247 17v2.074c-.12.03-.256.044-.39.073-1.939.331-3.996.196-6.038-.479z"/></symbol>
  <symbol id="brand-xbox" viewBox="0 0 24 24"><path d="M4.102 21.033C6.211 22.881 8.977 24 12 24c3.026 0 5.789-1.119 7.902-2.967 1.877-1.912-4.316-8.709-7.902-11.417-3.582 2.708-9.779 9.505-7.898 11.417zm11.16-14.406c2.5 2.961 7.484 10.313 6.076 12.912C23.002 17.48 24 14.861 24 12.004c0-3.34-1.365-6.362-3.57-8.536 0 0-.027-.022-.082-.042-.063-.022-.152-.045-.281-.045-.592 0-1.985.434-4.805 3.246zM3.654 3.426c-.057.02-.082.041-.086.042C1.365 5.642 0 8.664 0 12.004c0 2.854.998 5.473 2.661 7.533-1.401-2.605 3.579-9.951 6.08-12.91-2.82-2.813-4.216-3.245-4.806-3.245-.131 0-.223.021-.281.046v-.002zM12 3.551S9.055 1.828 6.755 1.746c-.903-.033-1.454.295-1.521.339C7.379.646 9.659 0 11.984 0H12c2.334 0 4.605.646 6.766 2.085-.068-.046-.615-.372-1.52-.339C14.946 1.828 12 3.545 12 3.545v.006z"/></symbol>
  <!-- Trophy: Material Design Icons, Apache-2.0. A generic cup rather than Sony's
       own trophy art, which is a trademark and comes in four tiers we do not
       distinguish here -- the count is all tiers together. -->
  <symbol id="brand-trophy" viewBox="0 0 24 24"><path d="M18 2C17.1 2 16 3 16 4H8C8 3 6.9 2 6 2H2V11C2 12 3 13 4 13H6.2C6.6 15 7.9 16.7 11 17V19.08C8 19.54 8 22 8 22H16C16 22 16 19.54 13 19.08V17C16.1 16.7 17.4 15 17.8 13H20C21 13 22 12 22 11V2H18M6 11H4V4H6V11M20 11H18V4H20V11Z"/></symbol>
  <!-- mastered: Material Design Icons, Apache-2.0 -->
  <symbol id="brand-crown" viewBox="0 0 24 24"><path d="M5 16L3 5L8.5 10L12 4L15.5 10L21 5L19 16H5M19 19C19 19.6 18.6 20 18 20H6C5.4 20 5 19.6 5 19V18H19V19Z"/></symbol>
  <!-- beaten: Material Design Icons, Apache-2.0 -->
  <symbol id="brand-check" viewBox="0 0 24 24"><path d="M9,20.42L2.79,14.21L5.62,11.38L9,14.77L18.88,4.88L21.71,7.71L9,20.42Z"/></symbol>
</svg>
